# xmcd
#
# Track frame offsets:
#	150
#	15006
#	27803
#	41748
#	52389
#	67602
#	79475
#	91166
#	102815
#	119691
#	132857
#	149561
#	160800
#	178583
#	188574
#	201918
#
# Disc length: 2893 seconds
#
# Revision: 0
# Processed by: cddbd v1.5.2PL0 Copyright (c) Steve Scherf et al.
# Submitted via: EasyCDDAExtractor 12.0.1.1
#
DISCID=d50b4b10
DTITLE=Various Artist - Boogieman [CD1)
DYEAR=2009
DGENRE=Pop
TTITLE0=Owe Thörnqvist och Ulla-Bella med Spel-Pelles fäbod-trio - Anders och 
TTITLE0=Brita
TTITLE1=Owe Thörnqvist med Gunnar Lundén-Weldens orkester - Marianne
TTITLE2=Owe Thörnqvist och The Rokomoozers - Rotmos Rock
TTITLE3=Owe Thörnqvist med Gunnar Lundén-Weldens orkester - Rumba i Engelska p
TTITLE3=arken
TTITLE4=Owe Thörnqvist och Ulla-Bella - Titta, titta
TTITLE5=Owe Thörnqvist med Stråk-Herbert and His Original Sätt-Fart Orkester /
TTITLE5=På festplatsen
TTITLE6=Owe Thörnqvist med Bjarne Nerems kvintett - Diverse julboogie
TTITLE7=Owe Thörnqvist med Gunnar Lundén-Weldens orkester - Josefsson
TTITLE8=Owe Thörnqvist med Svenska Skiffle-kvartetten - Albin och Pia
TTITLE9=Owe Thörnqvist med Pantless Pärssons sextett - Auktionsrock
TTITLE10=Owe Thörnqvist and His Hot Doggies - Jag har inte några pängar (korvb
TTITLE10=lues)
TTITLE11=Owe Thörnqvist and His Hiccups - Nam jam
TTITLE12=Owe Thörnqvist and His Crying Hearts - Ett litet rött paket
TTITLE13=Owe Thörnqvist and His Red Caps - Liten grötrock
TTITLE14=Owe Thörnqvist med Bröderna Bush Brothers - Icke sa Nicke
TTITLE15=Owe Thörnqvist et ses Bourquinistes - Dagboken
EXTD=
EXTT0=
EXTT1=
EXTT2=
EXTT3=
EXTT4=
EXTT5=
EXTT6=
EXTT7=
EXTT8=
EXTT9=
EXTT10=
EXTT11=
EXTT12=
EXTT13=
EXTT14=
EXTT15=
PLAYORDER=
